{
  "accessors": [
    {
      "bufferView": 2,
      "componentType": 5126,
      "count": 1066,
      "max": [
        2.113192558288574,
        1.242461919784546,
        1.311094045639038
      ],
      "min": [
        -2.113192558288574,
        -1.242461919784546,
        -7.3481974601745605
      ],
      "type": "VEC3"
    },
    {
      "bufferView": 2,
      "byteOffset": 12792,
      "componentType": 5126,
      "count": 1066,
      "max": [
        1.0,
        1.0,
        1.0
      ],
      "min": [
        -1.0,
        -1.0,
        -1.0
      ],
      "type": "VEC3"
    },
    {
      "bufferView": 3,
      "componentType": 5126,
      "count": 1066,
      "max": [
        0.9999998211860657,
        0.9999998211860657,
        0.9994596838951111,
        1.0
      ],
      "min": [
        -1.0,
        -0.9999998211860657,
        -0.9994077682495117,
        1.0
      ],
      "type": "VEC4"
    },
    {
      "bufferView": 1,
      "componentType": 5126,
      "count": 1066,
      "max": [
        0.9985755085945129,
        0.99994295835495
      ],
      "min": [
        0.0020447075366973877,
        5.7031953474506736e-05
      ],
      "type": "VEC2"
    },
    {
      "bufferView": 1,
      "byteOffset": 8528,
      "componentType": 5126,
      "count": 1066,
      "max": [
        0.9985755085945129,
        0.99994295835495
      ],
      "min": [
        0.0020447075366973877,
        5.7031953474506736e-05
      ],
      "type": "VEC2"
    },
    {
      "bufferView": 0,
      "componentType": 5125,
      "count": 4650,
      "type": "SCALAR"
    }
  ],
  "asset": {
    "extras": {
      "author": "TheDevilsEye (https://sketchfab.com/TheDevilsEye)",
      "license": "CC-BY-4.0 (http://creativecommons.org/licenses/by/4.0/)",
      "source": "https://sketchfab.com/3d-models/mjolnir-thors-hammer-ecca1232710f4721b14d64a90bba6557",
      "title": "Mjolnir (Thor's hammer)"
    },
    "generator": "Sketchfab-12.68.0",
    "version": "2.0"
  },
  "bufferViews": [
    {
      "buffer": 0,
      "byteLength": 18600,
      "name": "floatBufferViews",
      "target": 34963
    },
    {
      "buffer": 0,
      "byteLength": 17056,
      "byteOffset": 18600,
      "byteStride": 8,
      "name": "floatBufferViews",
      "target": 34962
    },
    {
      "buffer": 0,
      "byteLength": 25584,
      "byteOffset": 35656,
      "byteStride": 12,
      "name": "floatBufferViews",
      "target": 34962
    },
    {
      "buffer": 0,
      "byteLength": 17056,
      "byteOffset": 61240,
      "byteStride": 16,
      "name": "floatBufferViews",
      "target": 34962
    }
  ],
  "buffers": [
    {
      "byteLength": 78296,
      "uri": "scene.bin"
    }
  ],
  "images": [
    {
      "uri": "textures/mjolnir_hammer_baseColor.jpeg"
    },
    {
      "uri": "textures/mjolnir_hammer_metallicRoughness.png"
    },
    {
      "uri": "textures/mjolnir_hammer_normal.jpeg"
    }
  ],
  "materials": [
    {
      "doubleSided": true,
      "name": "mjolnir_hammer",
      "normalTexture": {
        "index": 2
      },
      "occlusionTexture": {
        "index": 1
      },
      "pbrMetallicRoughness": {
        "baseColorTexture": {
          "index": 0
        },
        "metallicRoughnessTexture": {
          "index": 1
        }
      }
    }
  ],
  "meshes": [
    {
      "name": "mjolnir_low_mjolnir_hammer_0",
      "primitives": [
        {
          "attributes": {
            "NORMAL": 1,
            "POSITION": 0,
            "TANGENT": 2,
            "TEXCOORD_0": 3,
            "TEXCOORD_1": 4
          },
          "indices": 5,
          "material": 0,
          "mode": 4
        }
      ]
    }
  ],
  "nodes": [
    {
      "children": [
        1
      ],
      "matrix": [
        -0.7729758024215698,
        0.6344355344772339,
        1.4087298760339848e-16,
        0.0,
        0.0,
        2.220446049250313e-16,
        -1.0,
        0.0,
        -0.6344355344772339,
        -0.7729758024215698,
        -1.7163510666530653e-16,
        0.0,
        275.1534118652344,
        768.9362182617188,
        -4.9174057323645167e-05,
        1.0
      ],
      "name": "Sketchfab_model"
    },
    {
      "children": [
        2
      ],
      "matrix": [
        1.0,
        0.0,
        0.0,
        0.0,
        0.0,
        0.0,
        1.0,
        0.0,
        0.0,
        -1.0,
        0.0,
        0.0,
        0.0,
        0.0,
        0.0,
        1.0
      ],
      "name": "mjolnir_low.fbx"
    },
    {
      "children": [
        3
      ],
      "name": "RootNode"
    },
    {
      "children": [
        4
      ],
      "matrix": [
        100.0,
        0.0,
        0.0,
        0.0,
        0.0,
        -1.629206793918314e-05,
        -99.99999999999868,
        0.0,
        0.0,
        99.99999999999868,
        -1.629206793918314e-05,
        0.0,
        3.725290298461914e-06,
        735.5526733398438,
        -4.76837158203125e-06,
        1.0
      ],
      "name": "mjolnir_low"
    },
    {
      "mesh": 0,
      "name": "mjolnir_low_mjolnir_hammer_0"
    }
  ],
  "samplers": [
    {
      "magFilter": 9729,
      "minFilter": 9987,
      "wrapS": 10497,
      "wrapT": 10497
    }
  ],
  "scene": 0,
  "scenes": [
    {
      "name": "Sketchfab_Scene",
      "nodes": [
        0
      ]
    }
  ],
  "textures": [
    {
      "sampler": 0,
      "source": 0
    },
    {
      "sampler": 0,
      "source": 1
    },
    {
      "sampler": 0,
      "source": 2
    }
  ]
}
